<?xml version="1.0" standalone="no"?>
<!DOCTYPE svg PUBLIC "-//W3C//DTD SVG 20010904//EN"
 "http://www.w3.org/TR/2001/REC-SVG-20010904/DTD/svg10.dtd">
<svg version="1.0" xmlns="http://www.w3.org/2000/svg"
 width="215.000000pt" height="64.000000pt" viewBox="0 0 215.000000 64.000000"
 preserveAspectRatio="xMidYMid meet">
<metadata>
Created by potrace 1.10, written by Peter Selinger 2001-2011
</metadata>
<g transform="translate(0.000000,64.000000) scale(0.100000,-0.100000)"
fill="#000000" stroke="none">
<path d="M105 630 c-34 -13 -46 -35 -49 -94 l-3 -56 53 0 54 0 -6 40 -7 40
928 0 927 0 -4 -70 -4 -70 51 0 50 0 -2 86 c-2 90 -13 116 -54 127 -24 7 -24
-8 1 -40 21 -26 29 -123 11 -123 -10 0 -21 34 -21 67 0 12 -12 30 -28 41 -27
20 -47 20 -929 21 l-901 2 -32 -32 c-42 -43 -62 -26 -30 26 25 40 24 46 -5 35z"/>
<path d="M250 448 l0 -38 70 0 70 0 0 -127 0 -128 60 0 60 -1 0 128 0 127 67
3 67 3 0 33 0 33 -197 2 -197 2 0 -37z m244 -7 c3 -5 -1 -14 -9 -21 -12 -10
-15 -36 -15 -116 0 -102 -9 -129 -33 -105 -7 7 -14 57 -18 114 -3 56 -9 110
-13 120 -7 15 -2 17 37 17 25 0 48 -4 51 -9z"/>
<path d="M680 485 c0 0 -1 -74 -1 -164 l-1 -164 128 2 c201 4 269 45 269 161
0 70 -27 110 -92 138 -42 18 -144 27 -303 27z m110 -42 c0 -5 -7 -17 -15 -27
-10 -14 -15 -45 -15 -96 0 -51 5 -82 15 -96 21 -28 18 -34 -15 -34 -20 0 -33
7 -41 21 -13 25 -10 208 4 227 10 13 67 17 67 5z m216 -47 c27 -27 34 -42 34
-74 0 -44 -34 -96 -70 -105 -24 -6 -28 18 -4 31 32 18 26 152 -7 152 -5 0 -9
7 -9 15 0 24 20 17 56 -19z m-75 -15 c20 -20 29 -39 29 -61 0 -22 -9 -41 -29
-61 -26 -25 -37 -29 -85 -29 l-56 0 0 90 0 90 56 0 c48 0 59 -4 85 -29z"/>
<path d="M1191 481 c-46 -12 -85 -43 -89 -71 -9 -61 20 -88 141 -126 41 -13
57 -23 57 -35 0 -34 -71 -35 -162 -3 l-38 13 0 -43 0 -44 81 -12 c128 -20 226
-1 263 52 39 55 -2 102 -122 142 -64 22 -82 32 -80 45 6 30 107 23 194 -15 7
-3 11 10 11 36 0 37 -2 41 -36 50 -50 15 -179 21 -220 11z m34 -58 c-9 -18
-11 -32 -5 -44 13 -23 59 -59 77 -59 27 0 112 -42 118 -58 9 -24 -35 -62 -80
-69 l-38 -6 16 24 c9 13 17 31 17 39 0 26 -42 59 -98 75 -63 19 -106 53 -97
77 7 18 60 47 87 48 15 0 15 -3 3 -27z"/>
<path d="M1597 476 c-87 -24 -137 -99 -122 -187 15 -87 87 -132 215 -133 47
-1 106 3 133 7 l47 8 0 80 0 79 -104 0 c-57 0 -111 3 -120 6 -9 3 -16 2 -16
-3 0 -4 24 -14 52 -21 59 -14 92 -40 82 -65 -21 -56 -152 -13 -169 56 -9 36
14 79 55 100 42 22 139 19 188 -7 l32 -17 0 45 0 44 -63 11 c-81 14 -149 13
-210 -3z m38 -45 c-60 -36 -85 -109 -56 -164 7 -13 31 -36 54 -50 l41 -27 -30
0 c-16 0 -50 10 -74 23 -36 17 -48 30 -59 63 -21 61 0 121 54 151 22 13 54 23
70 23 l30 0 -30 -19z m203 -176 c4 -45 -14 -65 -61 -65 l-29 0 27 31 c14 18
24 38 21 46 -8 20 3 35 22 31 12 -2 18 -16 20 -43z"/>
<path d="M55 411 c-3 -2 -2 -15 1 -27 6 -21 3 -24 -25 -24 -30 0 -31 -2 -31
-40 0 -38 2 -40 30 -40 27 0 30 -3 28 -27 -3 -26 -1 -27 47 -27 49 0 50 1 47
27 -3 24 0 27 27 27 29 0 31 2 31 40 0 38 -2 40 -31 40 -27 0 -30 3 -27 27 3
26 1 27 -45 28 -26 0 -50 -1 -52 -4z m85 -66 l23 -25 -23 -25 c-13 -14 -28
-25 -34 -25 -16 1 -56 36 -56 50 0 14 40 49 56 50 6 0 21 -11 34 -25z"/>
<path d="M1940 320 l0 -40 105 0 105 0 0 40 0 40 -105 0 -105 0 0 -40z"/>
<path d="M1998 150 l4 -70 -927 0 -928 0 7 40 6 40 -54 0 -53 0 3 -56 c3 -59
20 -88 55 -97 24 -6 24 -6 -2 38 -17 28 -19 39 -10 48 9 9 16 7 29 -9 9 -12
27 -27 40 -33 17 -9 249 -12 912 -10 833 2 892 3 919 20 27 17 46 59 39 89 -2
7 3 15 10 17 21 8 15 -87 -8 -125 -25 -40 -25 -41 -1 -35 41 11 52 37 54 127
l2 86 -50 0 -51 0 4 -70z"/>
</g>
</svg>
